<svg width="105" height="32" viewBox="0 0 105 32" fill="none" xmlns="http://www.w3.org/2000/svg">
<path d="M18.4388 12.0406H6.59308C2.71424 12.0406 0 9.56401 0 6.02266C0 2.48132 2.71424 0 6.59308 0H29.7283V3.066H6.59308C4.38271 3.066 3.06124 4.1688 3.06124 6.02266C3.06124 7.87652 4.38271 8.97933 6.59308 8.97933H18.434V12.0453L18.4388 12.0406Z" fill="url(#paint0_linear_6861_102187)"/>
<path d="M104.529 14.5837V13.8279H101.463V14.5885C101.463 16.718 99.3574 18.4436 96.7715 18.4436C94.1856 18.4436 92.075 16.7133 92.075 14.5837V13.7804H89.009V31.7438H92.075V20.093C93.3822 20.9819 95.0079 21.5096 96.7715 21.5096C98.535 21.5096 100.156 20.9819 101.463 20.093V31.7438H104.529V14.5885C104.529 14.5885 104.529 14.5837 104.529 14.579V14.5837Z" fill="white"/>
<path d="M64.1862 13.6425C62.7887 13.6425 61.491 14.0371 60.431 14.7073V13.7946H57.365V31.7438H60.431V18.1488C61.0394 16.9462 62.494 16.0953 64.1862 16.0953C66.4251 16.0953 68.2457 17.5832 68.2457 19.4085V20.0455H70.6985V19.4085C70.6985 16.2284 67.7751 13.6425 64.1862 13.6425Z" fill="white"/>
<path d="M79.4216 13.5902C75.6664 13.5902 72.6099 16.6467 72.6099 20.402V25.1887C72.6099 28.944 75.6664 32.0005 79.4216 32.0005C83.1769 32.0005 86.2333 28.944 86.2333 25.1887V20.402C86.2333 16.6467 83.1769 13.5902 79.4216 13.5902ZM79.4216 28.9297C77.4774 28.9297 75.8708 27.4371 75.6949 25.5357C75.9278 23.8767 77.4442 22.6694 79.4121 22.6694C81.38 22.6694 82.9534 23.9148 83.1436 25.6213C82.9249 27.4799 81.342 28.9297 79.4264 28.9297H79.4216ZM83.1674 21.3431C82.1358 20.6349 80.8476 20.2213 79.4121 20.2213C77.9765 20.2213 76.7026 20.6301 75.6806 21.3289V20.402C75.6806 18.3389 77.3586 16.6562 79.4264 16.6562C81.4941 16.6562 83.1721 18.3342 83.1721 20.402V21.3431H83.1674Z" fill="white"/>
<path d="M10.2105 3.08026H7.14453V31.7438H10.2105V3.08026Z" fill="white"/>
<path d="M26.6817 24.8941C26.6817 26.1157 26.2729 27.1377 25.5076 27.846C24.766 28.5305 23.7012 28.906 22.5081 28.906C20.5829 28.906 18.3346 27.8555 18.3346 24.8988V13.7899H15.2686V24.8893C15.2686 28.9868 18.3155 31.9625 22.5081 31.9625C24.4713 31.9625 26.2681 31.3018 27.5801 30.0944C28.9776 28.8109 29.7477 26.9618 29.7477 24.8893V13.7899H26.6817V24.8893V24.8941Z" fill="white"/>
<path d="M35.7274 24.2951V6.02271H32.6614V24.2951C32.6614 26.9761 32.6614 31.9672 38.8979 31.9672V28.9012C36.4404 28.9012 35.7226 28.2975 35.7226 24.2951H35.7274Z" fill="white"/>
<path d="M47.3638 28.9012C45.0631 28.9012 43.1903 27.3896 43.1903 25.531V20.0217C43.1903 18.1631 45.0631 16.6515 47.3638 16.6515C49.6645 16.6515 51.3995 18.0442 51.5326 19.822L54.5891 19.5986C54.3419 16.2284 51.1714 13.5902 47.3638 13.5902C43.3709 13.5902 40.1243 16.4756 40.1243 20.0217V25.531C40.1243 29.0771 43.3709 31.9624 47.3638 31.9624C51.3567 31.9624 54.6034 29.0771 54.6034 25.531H51.5374C51.5374 27.3896 49.6645 28.9012 47.3638 28.9012Z" fill="white"/>
<path d="M104.534 0H70.7034V12.0406H104.534V0Z" fill="url(#paint1_linear_6861_102187)"/>
<path d="M79.6923 6.76428C79.9014 7.03998 80.0108 7.38224 80.0108 7.78153C80.0108 8.35195 79.7874 8.78927 79.3453 9.09824C78.9032 9.40722 78.2567 9.55933 77.4059 9.55933H74.0356V3.04706H77.2157C78.0096 3.04706 78.618 3.19917 79.0458 3.50339C79.4689 3.80762 79.6828 4.22117 79.6828 4.7393C79.6828 5.05778 79.6067 5.33824 79.4546 5.58542C79.3025 5.8326 79.0886 6.02749 78.8176 6.1701C79.1884 6.28893 79.4831 6.48383 79.6923 6.75953V6.76428ZM75.533 4.18314V5.71852H77.0303C77.4011 5.71852 77.6863 5.65197 77.8765 5.52362C78.0666 5.39528 78.1664 5.20039 78.1664 4.94845C78.1664 4.69652 78.0714 4.50162 77.8765 4.37803C77.6816 4.25444 77.4011 4.18789 77.0303 4.18789H75.533V4.18314ZM78.1902 8.22835C78.3898 8.10001 78.4944 7.89561 78.4944 7.62466C78.4944 7.08752 78.0951 6.81657 77.2918 6.81657H75.533V8.428H77.2918C77.6863 8.428 77.9858 8.36145 78.1902 8.23311V8.22835Z" fill="white"/>
<path d="M87.1267 8.35194V9.55933H82.0833V3.04706H87.0079V4.25444H83.5854V5.67098H86.6086V6.84509H83.5854V8.35194H87.1315H87.1267Z" fill="white"/>
<path d="M90.606 4.27346H88.5239V3.04706H94.1996V4.27346H92.1176V9.55933H90.6107V4.27346H90.606Z" fill="white"/>
<path d="M99.904 8.16181H96.8808L96.3056 9.55933H94.7607L97.6651 3.04706H99.153L102.067 9.55933H100.484L99.9088 8.16181H99.904ZM99.4287 7.01622L98.3972 4.52064L97.3656 7.01622H99.4334H99.4287Z" fill="white"/>
<defs>
<linearGradient id="paint0_linear_6861_102187" x1="14.8641" y1="-0.256688" x2="14.8641" y2="12.0263" gradientUnits="userSpaceOnUse">
<stop stop-color="#00EB75"/>
<stop offset="0.14" stop-color="#00D489"/>
<stop offset="0.43" stop-color="#009BBC"/>
<stop offset="0.51" stop-color="#0089CD"/>
<stop offset="0.99" stop-color="#FF00C6"/>
</linearGradient>
<linearGradient id="paint1_linear_6861_102187" x1="70.7034" y1="6.02266" x2="104.529" y2="6.02266" gradientUnits="userSpaceOnUse">
<stop offset="0.09" stop-color="#007CBA"/>
<stop offset="0.85" stop-color="#E000AE"/>
</linearGradient>
</defs>
</svg>
