<svg width="24" height="24" viewBox="0 0 24 24" fill="none" xmlns="http://www.w3.org/2000/svg">
<path d="M24 11.9999C24 18.6274 18.6275 24 12.0001 24C5.37258 24 0 18.6274 0 11.9999C0 5.37255 5.37258 0 12.0001 0C18.6274 0 24 5.37255 24 11.9999Z" fill="#345D9D"/>
<path d="M20.7273 12.5455C20.7273 17.6663 16.5758 21.8182 11.4547 21.8182C6.33366 21.8182 2.18188 17.6663 2.18188 12.5455C2.18188 7.42425 6.33366 3.27271 11.4547 3.27271C16.5759 3.27271 20.7273 7.42418 20.7273 12.5455Z" fill="#345D9D"/>
<path d="M11.3001 15.0957L12.0779 12.1608L13.9196 11.4866L14.3777 9.7618L14.362 9.71901L12.5492 10.3826L13.8554 5.45459H10.151L8.44286 11.8858L7.01666 12.4078L6.54541 14.186L7.97052 13.6644L6.96378 17.4546H16.8225L17.4545 15.0957H11.3001Z" fill="white"/>
</svg>
