<svg width="24" height="24" viewBox="0 0 24 24" fill="none" xmlns="http://www.w3.org/2000/svg">
<path d="M12 24C18.6274 24 24 18.6274 24 12C24 5.37258 18.6274 0 12 0C5.37258 0 0 5.37258 0 12C0 18.6274 5.37258 24 12 24Z" fill="#8DC351"/>
<path d="M15.9 7.875C15.3 6.375 13.875 6.3 12.15 6.6L11.55 4.5L10.275 4.875L10.875 6.9C10.575 6.975 10.2 7.125 9.825 7.2L9.225 5.1L7.95 5.475L8.55 7.575C8.25 7.65 8.025 7.725 7.725 7.8L6 8.4L6.375 9.75C6.375 9.75 7.35 9.45 7.275 9.45C7.8 9.3 8.025 9.525 8.175 9.825L8.85 12.225C8.85 12.225 8.925 12.225 9 12.225L8.85 12.3L9.825 15.675C9.825 15.825 9.825 16.125 9.45 16.275L8.55 16.575L8.7 18.15L10.35 17.7C10.65 17.625 10.95 17.55 11.25 17.475L11.85 19.575L13.125 19.2L12.525 17.1C12.9 17.025 13.2 16.95 13.575 16.8L14.175 18.9L15.45 18.525L14.85 16.425C16.95 15.675 18.3 14.7 17.925 12.6C17.625 10.95 16.65 10.425 15.3 10.5C16.05 9.75 16.35 9 15.9 7.875ZM15.45 12.975C15.9 14.55 13.125 15.15 12.225 15.45L11.4 12.6C12.3 12.375 14.925 11.325 15.45 12.975ZM13.65 9.15C14.1 10.575 11.775 11.1 11.025 11.325L10.275 8.775C11.025 8.55 13.275 7.65 13.65 9.15Z" fill="white"/>
</svg>
