<svg width="16" height="16" viewBox="0 0 16 16" fill="none" xmlns="http://www.w3.org/2000/svg">
<path d="M11.0984 2C10.3192 1.99937 9.5511 2.18793 8.85789 2.55003C8.16467 2.91213 7.56634 3.43732 7.11258 4.08198C6.65882 4.72664 6.36272 5.47217 6.24888 6.25666C6.13504 7.04116 6.20674 7.84197 6.45802 8.5926H0.937536C0.689053 8.5926 0.450733 8.69299 0.274939 8.87172C0.0991447 9.05044 0.000255904 9.29289 0 9.54577V11.1485C0.000327129 11.3568 0.0682066 11.5592 0.193107 11.7243C0.0937011 11.8788 0.0406886 12.0594 0.0405525 12.2441V13.8429C0.0408076 14.0957 0.139533 14.3381 0.315091 14.517C0.490649 14.6958 0.728719 14.7965 0.977123 14.7971H8.90952C9.15792 14.7965 9.39599 14.6958 9.57155 14.517C9.74711 14.3381 9.84583 14.0957 9.84609 13.8429V12.2441C9.8453 12.081 9.80305 11.9209 9.72346 11.7793C10.3976 11.9799 11.1062 12.0307 11.8013 11.9283C12.4964 11.8259 13.1617 11.5726 13.7523 11.1856C14.3428 10.7986 14.8447 10.287 15.224 9.6854C15.6032 9.08379 15.851 8.40624 15.9505 7.69865C16.0501 6.99107 15.999 6.26998 15.8008 5.58424C15.6026 4.8985 15.2619 4.26412 14.8017 3.72408C14.3416 3.18405 13.7728 2.75097 13.1338 2.45419C12.4949 2.1574 11.8007 2.00385 11.0984 2.00393V2ZM0.965537 9.57525H6.90893C7.27728 10.1899 7.77121 10.7167 8.35723 11.12H0.965537V9.57525ZM8.87959 13.8183H1.00609V12.2707H8.88055L8.87959 13.8183ZM11.1003 10.9942C10.3216 10.9948 9.56019 10.7603 8.91243 10.3204C8.26468 9.88048 7.75968 9.25494 7.46132 8.52288C7.16296 7.79083 7.08464 6.98516 7.23629 6.2078C7.38793 5.43044 7.76271 4.71631 8.31322 4.15577C8.86373 3.59523 9.56523 3.21346 10.329 3.05875C11.0927 2.90403 11.8844 2.98334 12.6039 3.28663C13.3233 3.58992 13.9382 4.10356 14.3708 4.76258C14.8033 5.4216 15.0341 6.19638 15.0339 6.98892C15.0324 8.05061 14.6172 9.06837 13.8795 9.81901C13.1417 10.5697 12.1416 10.9919 11.0984 10.9932L11.1003 10.9942Z" fill="url(#paint0_linear_3341_64447)"/>
<path d="M10.7565 4.83599L8.87085 6.75511L9.55445 7.44984L10.5721 6.41413V9.36208H11.6246V6.41413L12.6422 7.44984L13.3249 6.75511L11.4392 4.83599C11.3486 4.74388 11.2259 4.69214 11.0979 4.69214C10.9698 4.69214 10.8471 4.74388 10.7565 4.83599V4.83599ZM11.0645 5.91691L11.0983 5.8835L11.1312 5.91691H11.0645Z" fill="url(#paint1_linear_3341_64447)"/>
<defs>
<linearGradient id="paint0_linear_3341_64447" x1="-5.77719e-08" y1="9.1513" x2="16" y2="9.1513" gradientUnits="userSpaceOnUse">
<stop stop-color="#574BE8"/>
<stop offset="1" stop-color="#00FD80"/>
</linearGradient>
<linearGradient id="paint1_linear_3341_64447" x1="8.87085" y1="7.30181" x2="13.3249" y2="7.30181" gradientUnits="userSpaceOnUse">
<stop stop-color="#574BE8"/>
<stop offset="1" stop-color="#00FD80"/>
</linearGradient>
</defs>
</svg>
