<?xml version="1.0" standalone="no"?><!DOCTYPE svg PUBLIC "-//W3C//DTD SVG 1.1//EN" "http://www.w3.org/Graphics/SVG/1.1/DTD/svg11.dtd"><svg t="1696745697778" class="icon" viewBox="0 0 1025 1024" version="1.1" xmlns="http://www.w3.org/2000/svg" p-id="8463" xmlns:xlink="http://www.w3.org/1999/xlink" width="32.03125" height="32"><path d="M838.426201 107.358962v-43.454818c0-34.763854-30.162756-62.370444-65.949077-62.370445H249.996845c-35.786321 0-65.949076 27.60659-65.949077 62.370445V107.358962C79.244973 126.785821 0.003834 218.296555 0.003834 328.722916c0 117.072391 89.977034 213.695457 204.49326 223.920119 41.921118 108.381428 143.145282 188.133799 265.841239 202.959561v186.6001h-204.493261c-11.247129 0-21.471792 4.601098-29.140289 11.758362-7.157264 7.668497-11.758362 17.89316-11.758363 29.14029 0 22.494259 18.404393 40.898652 40.898652 40.898652h490.783825c22.494259 0 40.898652-18.404393 40.898652-40.898652s-18.404393-40.898652-40.898652-40.898652h-204.49326v-186.6001c74.128807-8.690964 140.589116-41.409885 190.689965-89.977034 33.230155-31.696455 58.791812-70.038942 75.662506-112.982527 114.516226-10.224663 204.49326-106.847728 204.49326-223.920119-0.511233-110.42636-79.752371-201.937094-184.555167-221.363954z m-756.625063 221.363954c0-64.92661 43.454818-119.628557 102.24663-137.010485v251.52671c0 7.668497 0.511233 15.848228 1.022467 23.516725-59.303045-17.89316-103.269096-73.10634-103.269097-138.03295z m674.827759 114.004992c0 128.830754-109.915127 233.63355-245.391912 233.63355s-245.391912-104.802796-245.391913-233.63355V83.331003h490.783825v359.396905z m80.774837 23.516725c0.511233-7.668497 1.022466-15.336995 1.022467-23.516725V191.712431c58.791812 17.89316 102.24663 72.595107 102.24663 137.010485 0 64.92661-43.454818 120.13979-103.269097 137.521717z" p-id="8464" fill="#ffffff"></path><path d="M459.602436 274.020969l25.561658-54.701948c8.17973-17.89316 33.741388-17.89316 42.432351 0l25.561658 54.701948c3.067399 7.157264 9.71343 12.269596 17.381927 13.292061l58.791812 9.202197c18.915627 3.067399 26.584124 26.072891 13.292062 39.876186l-43.966051 45.49975c-5.112332 5.112332-7.668497 12.780829-6.134798 20.449326l10.224663 62.881678c3.067399 19.42686-17.381927 33.741388-34.252621 24.539191l-50.612082-28.117823c-7.157264-4.089865-15.336995-4.089865-22.494258 0l-50.612082 28.117823c-16.870694 9.71343-37.32002-5.112332-34.252621-24.539191l10.224663-62.881678c1.022466-7.157264-1.022466-14.825761-6.134798-20.449326L370.647868 336.391413c-13.292062-13.803295-5.623565-36.808787 13.292062-39.876186l58.791812-9.202197c6.646031-1.533699 13.292062-6.646031 16.870694-13.292061z" p-id="8465" fill="#ffffff"></path></svg>