<svg width="17" height="16" viewBox="0 0 17 16" fill="none" xmlns="http://www.w3.org/2000/svg">
<g clip-path="url(#clip0_3341_64442)">
<path d="M11.5984 2C10.8192 1.99937 10.0511 2.18793 9.35789 2.55003C8.66467 2.91213 8.06634 3.43732 7.61258 4.08198C7.15882 4.72664 6.86272 5.47217 6.74888 6.25666C6.63504 7.04116 6.70674 7.84197 6.95802 8.5926H1.43754C1.18905 8.5926 0.950733 8.69299 0.774939 8.87172C0.599145 9.05044 0.500256 9.29288 0.5 9.54577V11.1485C0.500327 11.3568 0.568207 11.5592 0.693107 11.7243C0.593701 11.8788 0.540689 12.0594 0.540553 12.2441V13.8429C0.540808 14.0957 0.639533 14.3381 0.815091 14.517C0.990649 14.6958 1.22872 14.7965 1.47712 14.7971H9.40952C9.65792 14.7965 9.89599 14.6958 10.0715 14.517C10.2471 14.3381 10.3458 14.0957 10.3461 13.8429V12.2441C10.3453 12.081 10.3031 11.9209 10.2235 11.7793C10.8976 11.9799 11.6062 12.0307 12.3013 11.9283C12.9964 11.8259 13.6617 11.5726 14.2523 11.1856C14.8428 10.7986 15.3447 10.287 15.724 9.6854C16.1032 9.08379 16.351 8.40624 16.4505 7.69865C16.5501 6.99107 16.499 6.26998 16.3008 5.58424C16.1026 4.8985 15.7619 4.26412 15.3017 3.72408C14.8416 3.18405 14.2728 2.75097 13.6338 2.45419C12.9949 2.1574 12.3007 2.00385 11.5984 2.00393V2ZM1.46554 9.57525H7.40893C7.77728 10.1899 8.27121 10.7167 8.85723 11.12H1.46554V9.57525ZM9.37959 13.8183H1.50609V12.2707H9.38055L9.37959 13.8183ZM11.6003 10.9942C10.8216 10.9948 10.0602 10.7603 9.41243 10.3204C8.76468 9.88048 8.25968 9.25494 7.96132 8.52288C7.66296 7.79083 7.58464 6.98516 7.73629 6.2078C7.88793 5.43044 8.26271 4.71632 8.81322 4.15577C9.36373 3.59523 10.0652 3.21346 10.829 3.05875C11.5927 2.90403 12.3844 2.98334 13.1039 3.28663C13.8233 3.58992 14.4382 4.10356 14.8708 4.76258C15.3033 5.4216 15.5341 6.19638 15.5339 6.98892C15.5324 8.05061 15.1172 9.06837 14.3795 9.81901C13.6417 10.5696 12.6416 10.9919 11.5984 10.9932L11.6003 10.9942Z" fill="url(#paint0_linear_3341_64442)"/>
<path d="M11.2565 4.83599L9.37085 6.75511L10.0544 7.44984L11.0721 6.41413V9.36208H12.1246V6.41413L13.1422 7.44984L13.8249 6.75511L11.9392 4.83599C11.8486 4.74388 11.7259 4.69214 11.5979 4.69214C11.4698 4.69214 11.3471 4.74388 11.2565 4.83599ZM11.5645 5.91691L11.5983 5.8835L11.6312 5.91691H11.5645Z" fill="url(#paint1_linear_3341_64442)"/>
</g>
<defs>
<linearGradient id="paint0_linear_3341_64442" x1="0.5" y1="8.39853" x2="16.5" y2="8.39853" gradientUnits="userSpaceOnUse">
<stop stop-color="#FF1EC7"/>
<stop offset="1" stop-color="#584AF8"/>
</linearGradient>
<linearGradient id="paint1_linear_3341_64442" x1="9.37085" y1="7.02711" x2="13.8249" y2="7.02711" gradientUnits="userSpaceOnUse">
<stop stop-color="#FF1EC7"/>
<stop offset="1" stop-color="#584AF8"/>
</linearGradient>
<clipPath id="clip0_3341_64442">
<rect width="16" height="16" fill="white" transform="translate(0.5)"/>
</clipPath>
</defs>
</svg>
