<svg width="1170" height="280" viewBox="0 0 1170 280" fill="none" xmlns="http://www.w3.org/2000/svg">
<mask id="mask0_6088_99243" style="mask-type:alpha" maskUnits="userSpaceOnUse" x="0" y="0" width="1995" height="800">
<rect width="1995" height="800" fill="#D9D9D9"/>
</mask>
<g mask="url(#mask0_6088_99243)">
<rect y="-1" width="1995" height="1200" fill="black"/>
<line x1="79.5457" y1="-1" x2="79.5456" y2="1199" stroke="#594BF1" stroke-opacity="0.75" stroke-width="0.15"/>
<line x1="26.3992" y1="-1" x2="26.3991" y2="1199" stroke="#594BF1" stroke-opacity="0.75" stroke-width="0.15"/>
<line x1="105.373" y1="-1" x2="105.373" y2="1199" stroke="#594BF1" stroke-opacity="0.75" stroke-width="0.15"/>
<line x1="52.2273" y1="-1" x2="52.2272" y2="1199" stroke="#594BF1" stroke-opacity="0.75" stroke-width="0.15"/>
<line x1="131.698" y1="-1" x2="131.698" y2="1199" stroke="#594BF1" stroke-opacity="0.75" stroke-width="0.15"/>
<line x1="157.029" y1="-1" x2="157.029" y2="1199" stroke="#594BF1" stroke-opacity="0.75" stroke-width="0.15"/>
<line x1="236.499" y1="-1" x2="236.499" y2="1199" stroke="#594BF1" stroke-opacity="0.75" stroke-width="0.15"/>
<line x1="183.353" y1="-1" x2="183.353" y2="1199" stroke="#594BF1" stroke-opacity="0.75" stroke-width="0.15"/>
<line x1="262.327" y1="-1" x2="262.327" y2="1199" stroke="#594BF1" stroke-opacity="0.75" stroke-width="0.15"/>
<line x1="209.181" y1="-1" x2="209.181" y2="1199" stroke="#594BF1" stroke-opacity="0.75" stroke-width="0.15"/>
<line x1="288.651" y1="-1" x2="288.651" y2="1199" stroke="#594BF1" stroke-opacity="0.75" stroke-width="0.15"/>
<line x1="314.479" y1="-1" x2="314.479" y2="1199" stroke="#594BF1" stroke-opacity="0.75" stroke-width="0.15"/>
<line x1="340.307" y1="-1" x2="340.307" y2="1199" stroke="#594BF1" stroke-opacity="0.75" stroke-width="0.15"/>
<line x1="366.135" y1="-1" x2="366.134" y2="1199" stroke="#594BF1" stroke-opacity="0.75" stroke-width="0.15"/>
<line x1="391.963" y1="-1" x2="391.963" y2="1199" stroke="#594BF1" stroke-opacity="0.75" stroke-width="0.15"/>
<line x1="417.791" y1="-1" x2="417.791" y2="1199" stroke="#594BF1" stroke-opacity="0.75" stroke-width="0.15"/>
<line x1="443.619" y1="-1" x2="443.619" y2="1199" stroke="#594BF1" stroke-opacity="0.75" stroke-width="0.15"/>
<line x1="469.447" y1="-1" x2="469.447" y2="1199" stroke="#594BF1" stroke-opacity="0.75" stroke-width="0.15"/>
<line x1="495.274" y1="-1" x2="495.274" y2="1199" stroke="#594BF1" stroke-opacity="0.75" stroke-width="0.15"/>
<line x1="521.102" y1="-1" x2="521.102" y2="1199" stroke="#594BF1" stroke-opacity="0.75" stroke-width="0.15"/>
<line x1="546.93" y1="-1" x2="546.93" y2="1199" stroke="#594BF1" stroke-opacity="0.75" stroke-width="0.15"/>
<line x1="572.759" y1="-1" x2="572.758" y2="1199" stroke="#594BF1" stroke-opacity="0.75" stroke-width="0.15"/>
<line x1="599.075" y1="-1" x2="599.075" y2="1199" stroke="#594BF1" stroke-opacity="0.75" stroke-width="0.15"/>
<line x1="625.391" y1="-1" x2="625.391" y2="1199" stroke="#594BF1" stroke-opacity="0.75" stroke-width="0.15"/>
<line x1="651.709" y1="-1" x2="651.709" y2="1199" stroke="#594BF1" stroke-opacity="0.75" stroke-width="0.15"/>
<line x1="678.025" y1="-1" x2="678.025" y2="1199" stroke="#594BF1" stroke-opacity="0.75" stroke-width="0.15"/>
<line x1="704.342" y1="-1" x2="704.341" y2="1199" stroke="#594BF1" stroke-opacity="0.75" stroke-width="0.15"/>
<line x1="730.658" y1="-1" x2="730.658" y2="1199" stroke="#594BF1" stroke-opacity="0.75" stroke-width="0.15"/>
<line x1="756.974" y1="-1" x2="756.974" y2="1199" stroke="#594BF1" stroke-opacity="0.75" stroke-width="0.15"/>
<line x1="783.291" y1="-1" x2="783.291" y2="1199" stroke="#594BF1" stroke-opacity="0.75" stroke-width="0.15"/>
<line x1="810.075" y1="-1" x2="810.075" y2="1199" stroke="#594BF1" stroke-opacity="0.75" stroke-width="0.15"/>
<line x1="836.859" y1="-1" x2="836.859" y2="1199" stroke="#594BF1" stroke-opacity="0.75" stroke-width="0.15"/>
<line x1="863.643" y1="-1" x2="863.643" y2="1199" stroke="#594BF1" stroke-opacity="0.75" stroke-width="0.15"/>
<line x1="890.428" y1="-1" x2="890.427" y2="1199" stroke="#594BF1" stroke-opacity="0.75" stroke-width="0.15"/>
<line x1="917.212" y1="-1" x2="917.212" y2="1199" stroke="#594BF1" stroke-opacity="0.75" stroke-width="0.15"/>
<line x1="943.996" y1="-1" x2="943.996" y2="1199" stroke="#594BF1" stroke-opacity="0.75" stroke-width="0.15"/>
<line x1="970.78" y1="-1" x2="970.78" y2="1199" stroke="#594BF1" stroke-opacity="0.75" stroke-width="0.15"/>
<line x1="997.564" y1="-1" x2="997.564" y2="1199" stroke="#594BF1" stroke-opacity="0.75" stroke-width="0.15"/>
<line x1="1024.35" y1="-1" x2="1024.35" y2="1199" stroke="#594BF1" stroke-opacity="0.75" stroke-width="0.15"/>
<line x1="1051.13" y1="-1" x2="1051.13" y2="1199" stroke="#594BF1" stroke-opacity="0.75" stroke-width="0.15"/>
<line x1="1077.92" y1="-1" x2="1077.92" y2="1199" stroke="#594BF1" stroke-opacity="0.75" stroke-width="0.15"/>
<line x1="1104.7" y1="-1" x2="1104.7" y2="1199" stroke="#594BF1" stroke-opacity="0.75" stroke-width="0.15"/>
<line x1="1131.49" y1="-1" x2="1131.48" y2="1199" stroke="#594BF1" stroke-opacity="0.75" stroke-width="0.15"/>
<line x1="1158.27" y1="-1" x2="1158.27" y2="1199" stroke="#594BF1" stroke-opacity="0.75" stroke-width="0.15"/>
<line y1="19.925" x2="1391.03" y2="19.925" stroke="#594BF1" stroke-opacity="0.75" stroke-width="0.15"/>
<line y1="54.925" x2="1391.03" y2="54.925" stroke="#594BF1" stroke-opacity="0.75" stroke-width="0.15"/>
<line y1="88.925" x2="1391.03" y2="88.925" stroke="#594BF1" stroke-opacity="0.75" stroke-width="0.15"/>
<line y1="122.925" x2="1391.03" y2="122.925" stroke="#594BF1" stroke-opacity="0.75" stroke-width="0.15"/>
<line y1="156.925" x2="1391.03" y2="156.925" stroke="#594BF1" stroke-opacity="0.75" stroke-width="0.15"/>
<line y1="190.925" x2="1391.03" y2="190.925" stroke="#594BF1" stroke-opacity="0.75" stroke-width="0.15"/>
<line y1="224.925" x2="1391.03" y2="224.925" stroke="#594BF1" stroke-opacity="0.75" stroke-width="0.15"/>
<line y1="258.925" x2="1391.03" y2="258.925" stroke="#594BF1" stroke-opacity="0.75" stroke-width="0.15"/>
<g style="mix-blend-mode:screen" opacity="0.2">
<path d="M1391.03 0H0V1199H1391.03V0Z" fill="url(#paint0_linear_6088_99243)"/>
</g>
</g>
<defs>
<linearGradient id="paint0_linear_6088_99243" x1="-1.67285" y1="599.507" x2="1401.7" y2="599.507" gradientUnits="userSpaceOnUse">
<stop stop-color="#6049FF"/>
<stop offset="0.13" stop-color="#6049FF" stop-opacity="0.9"/>
<stop offset="0.41" stop-color="#6049FF" stop-opacity="0.63"/>
<stop offset="0.81" stop-color="#5F4AFF" stop-opacity="0.21"/>
<stop offset="1" stop-color="#5F4AFF" stop-opacity="0"/>
</linearGradient>
</defs>
</svg>
